<svg width="16" height="16" viewBox="0 0 16 16" fill="none" xmlns="http://www.w3.org/2000/svg">
<g id="clipboard">
<path id="Icon" d="M10.6667 2.66732H12.0001C12.3537 2.66732 12.6928 2.80779 12.9429 3.05784C13.1929 3.30789 13.3334 3.64703 13.3334 4.00065V13.334C13.3334 13.6876 13.1929 14.0267 12.9429 14.2768C12.6928 14.5268 12.3537 14.6673 12.0001 14.6673H4.00008C3.64646 14.6673 3.30732 14.5268 3.05727 14.2768C2.80722 14.0267 2.66675 13.6876 2.66675 13.334V4.00065C2.66675 3.64703 2.80722 3.30789 3.05727 3.05784C3.30732 2.80779 3.64646 2.66732 4.00008 2.66732H5.33341M6.00008 1.33398H10.0001C10.3683 1.33398 10.6667 1.63246 10.6667 2.00065V3.33398C10.6667 3.70217 10.3683 4.00065 10.0001 4.00065H6.00008C5.63189 4.00065 5.33341 3.70217 5.33341 3.33398V2.00065C5.33341 1.63246 5.63189 1.33398 6.00008 1.33398Z" stroke="#667085" stroke-width="2" stroke-linecap="round" stroke-linejoin="round"/>
</g>
</svg>
