<svg width="8" height="12" viewBox="0 0 8 12" fill="none" xmlns="http://www.w3.org/2000/svg">
<path d="M3.26683 10.5C3.26683 11.325 2.60683 12 1.80016 12C0.993496 12 0.333496 11.325 0.333496 10.5C0.333496 9.675 0.993496 9 1.80016 9C2.60683 9 3.26683 9.675 3.26683 10.5ZM1.80016 4.5C0.993496 4.5 0.333496 5.175 0.333496 6C0.333496 6.825 0.993496 7.5 1.80016 7.5C2.60683 7.5 3.26683 6.825 3.26683 6C3.26683 5.175 2.60683 4.5 1.80016 4.5ZM1.80016 0C0.993496 0 0.333496 0.675 0.333496 1.5C0.333496 2.325 0.993496 3 1.80016 3C2.60683 3 3.26683 2.325 3.26683 1.5C3.26683 0.675 2.60683 0 1.80016 0ZM6.20016 3C7.00683 3 7.66683 2.325 7.66683 1.5C7.66683 0.675 7.00683 0 6.20016 0C5.3935 0 4.7335 0.675 4.7335 1.5C4.7335 2.325 5.3935 3 6.20016 3ZM6.20016 4.5C5.3935 4.5 4.7335 5.175 4.7335 6C4.7335 6.825 5.3935 7.5 6.20016 7.5C7.00683 7.5 7.66683 6.825 7.66683 6C7.66683 5.175 7.00683 4.5 6.20016 4.5ZM6.20016 9C5.3935 9 4.7335 9.675 4.7335 10.5C4.7335 11.325 5.3935 12 6.20016 12C7.00683 12 7.66683 11.325 7.66683 10.5C7.66683 9.675 7.00683 9 6.20016 9Z" fill="#AAABAD"/>
</svg>
