<svg width="16" height="16" viewBox="0 0 16 16" fill="none" xmlns="http://www.w3.org/2000/svg">
<g id="rocket" clip-path="url(#clip0_7693_10399)">
<path id="Icon" d="M8.88334 7.11747L3.62722 12.3736M4.19447 8.559L1.61993 7.95087C1.33668 7.88396 1.23706 7.53231 1.44225 7.32638L3.48968 5.27894C3.62722 5.14141 3.81382 5.0626 4.00935 5.06111L6.31773 5.04104M9.22533 2.3996C10.9434 3.57126 12.4296 5.0574 13.6012 6.77549M7.44107 11.8063L8.0492 14.3809C8.11611 14.6641 8.46776 14.7638 8.67369 14.5586L10.7211 12.5111C10.8587 12.3736 10.9375 12.187 10.939 11.9915L10.959 9.68308M14.0421 5.5674L14.6428 2.6769C14.8063 1.89034 14.1105 1.19448 13.3239 1.35804L10.4334 1.95874C9.58218 2.13568 8.80157 2.55721 8.18748 3.17203L5.81591 5.54286C4.91114 6.44763 4.32234 7.62078 4.13648 8.88686L4.1283 8.94113C4.01084 9.74925 4.28145 10.5648 4.85836 11.1425C5.43527 11.7194 6.25157 11.99 7.05969 11.8718L7.11396 11.8636C8.38004 11.6785 9.55318 11.0889 10.458 10.1842L12.8288 7.81333C13.4436 7.19925 13.8651 6.41864 14.0421 5.5674Z" stroke="white" stroke-width="1.3" stroke-linecap="round" stroke-linejoin="round"/>
</g>
<defs>
<clipPath id="clip0_7693_10399">
<rect width="16" height="16" fill="white"/>
</clipPath>
</defs>
</svg>
