<svg width="8" height="8" viewBox="0 0 8 8" fill="none" xmlns="http://www.w3.org/2000/svg">
<g id="triangle">
<path id="Icon" d="M3.42976 6.71424L0.606429 2.00091C0.548219 1.9001 0.517418 1.78581 0.517092 1.6694C0.516767 1.55299 0.546926 1.43853 0.604572 1.3374C0.662217 1.23627 0.745338 1.15199 0.845665 1.09296C0.945993 1.03392 1.06003 1.00219 1.17643 1.00091L6.8231 1.00091C6.9395 1.00219 7.05353 1.03392 7.15386 1.09296C7.25419 1.15199 7.33731 1.23627 7.39495 1.3374C7.4526 1.43853 7.48276 1.55299 7.48243 1.6694C7.48211 1.78581 7.45131 1.9001 7.3931 2.00091L4.56976 6.71424C4.51034 6.81221 4.42667 6.8932 4.32683 6.94941C4.22699 7.00563 4.11434 7.03516 3.99976 7.03516C3.88518 7.03516 3.77254 7.00563 3.6727 6.94941C3.57286 6.8932 3.48919 6.81221 3.42976 6.71424Z" fill="#98A2B3"/>
</g>
</svg>
