<svg xmlns="http://www.w3.org/2000/svg" width="32" height="32" viewBox="0 0 32 32" fill="none">
  <circle cx="16" cy="16" r="14" fill="#98A2B3"/>
  <path d="M23.9214 10.3175C23.1242 9.8405 22.2246 9.17132 21.3929 10.0266C20.3594 11.4942 18.4621 13.4702 19.4303 15.3902C19.8211 16.127 20.4671 16.6768 20.9862 17.3175C21.2909 17.6307 21.4516 18.0386 21.3929 18.4811C21.3222 19.0811 20.8448 19.5538 20.2613 19.6266C19.4833 19.7175 18.8114 19.0811 18.8114 18.2993C18.7407 17.8811 18.8468 16.9357 18.1395 16.8266C17.6798 16.7538 17.0963 17.4993 16.7957 18.4811C16.5551 19.2919 16.6896 19.9817 16.6896 20.7902C16.6896 21.6564 16.0625 22.4352 15.1336 22.3357C14.5147 22.2629 13.9843 21.7538 13.8959 21.1175C13.8183 20.6121 14.036 20.0985 14.3379 19.6993C14.6385 19.2447 15.0982 18.5538 15.3281 17.9175C15.5756 17.2447 15.9391 16.7084 15.4695 16.3538C15 15.9993 13.0075 18.9656 11.9155 18.772C11.4204 18.6811 11.0314 18.2629 10.943 17.772C10.8016 17.0266 11.279 16.372 11.9332 16.2447C12.7011 16.1054 14.9769 15.2493 14.7269 14.3175C14.4997 13.5231 12.5471 14.9947 11.9155 14.9357C11.3143 14.9175 10.8369 14.3902 10.8193 13.772C10.8193 13.0805 11.3715 12.5902 12.0393 12.5902C12.8218 12.5902 13.5955 12.9204 14.391 12.7357C16.43 12.283 17.1935 10.4645 18.2102 8.84474C18.6876 8.08111 18.4578 7.04474 17.6798 6.5902C16.7251 6.05848 15.738 5.74262 14.7092 6.35384L8.0609 10.3175C7.40668 10.6993 7 11.4266 7 12.2084V19.8084C7 20.5902 7.40668 21.3175 8.0609 21.6993L14.7269 25.6447C15.5049 26.1175 16.4774 26.1175 17.2731 25.6447L23.9391 21.6993C24.5933 21.3175 25 20.5902 25 19.8084V12.2084C24.9823 11.4266 24.5756 10.6993 23.9214 10.3175Z" fill="white"/>
</svg>